<svg width="28" height="34" viewBox="0 0 28 34" fill="none" xmlns="http://www.w3.org/2000/svg">
<path d="M13.942 0.399998C16.31 0.399998 18.374 0.847998 20.134 1.744C21.926 2.64 23.398 3.888 24.55 5.488C25.702 7.056 26.55 8.848 27.094 10.864C27.67 12.88 27.958 14.992 27.958 17.2C27.958 20.272 27.446 23.088 26.422 25.648C25.43 28.176 23.894 30.208 21.814 31.744C19.766 33.248 17.142 34 13.942 34H1.702C1.318 34 0.982 33.856 0.694 33.568C0.406 33.28 0.262 32.944 0.262 32.56V1.84C0.262 1.456 0.406 1.12 0.694 0.831998C0.982 0.543998 1.318 0.399998 1.702 0.399998H13.942ZM13.462 31.168C16.182 31.168 18.374 30.544 20.038 29.296C21.702 28.048 22.918 26.368 23.686 24.256C24.486 22.112 24.886 19.76 24.886 17.2C24.886 15.344 24.662 13.584 24.214 11.92C23.798 10.224 23.126 8.736 22.198 7.456C21.302 6.144 20.118 5.12 18.646 4.384C17.206 3.616 15.478 3.232 13.462 3.232H2.95L3.286 2.8V31.648L2.998 31.168H13.462Z" fill="black"/>
</svg>
